<mxfile host="app.diagrams.net" modified="2023-09-02T21:09:58.714Z" agent="Mozilla/5.0 (Macintosh; Intel Mac OS X 10_15_7) AppleWebKit/537.36 (KHTML, like Gecko) Chrome/116.0.0.0 Safari/537.36" etag="BFaPZcgTIKXkMr43p2PB" version="21.7.1" type="device" pages="2">
  <diagram id="CxLSAhRht5kFUvjG_U4R" name="Architecture">
    <mxGraphModel dx="2069" dy="822" grid="0" gridSize="10" guides="1" tooltips="1" connect="1" arrows="1" fold="1" page="1" pageScale="1" pageWidth="827" pageHeight="1169" math="0" shadow="0">
      <root>
        <mxCell id="0" />
        <mxCell id="1" parent="0" />
        <mxCell id="XV_mNA2x3nD7pgy6xjAF-25" value="" style="group" parent="1" vertex="1" connectable="0">
          <mxGeometry x="194" y="370" width="515" height="225" as="geometry" />
        </mxCell>
        <mxCell id="XV_mNA2x3nD7pgy6xjAF-30" value="" style="group" parent="XV_mNA2x3nD7pgy6xjAF-25" vertex="1" connectable="0">
          <mxGeometry x="180" width="335" height="222" as="geometry" />
        </mxCell>
        <mxCell id="XV_mNA2x3nD7pgy6xjAF-23" value="" style="rounded=1;whiteSpace=wrap;html=1;fontFamily=Helvetica;fontSize=11;fillColor=#ffe6cc;strokeColor=#d79b00;" parent="XV_mNA2x3nD7pgy6xjAF-30" vertex="1">
          <mxGeometry width="230" height="180" as="geometry" />
        </mxCell>
        <mxCell id="XV_mNA2x3nD7pgy6xjAF-28" value="" style="group" parent="XV_mNA2x3nD7pgy6xjAF-30" vertex="1" connectable="0">
          <mxGeometry y="5.92" width="233.59" height="121.82" as="geometry" />
        </mxCell>
        <mxCell id="XV_mNA2x3nD7pgy6xjAF-24" value="Xplorers Events System" style="text;html=1;align=center;verticalAlign=middle;resizable=0;points=[];autosize=1;strokeColor=none;fillColor=none;fontSize=11;fontFamily=Helvetica;fontColor=default;" parent="XV_mNA2x3nD7pgy6xjAF-28" vertex="1">
          <mxGeometry width="140" height="30" as="geometry" />
        </mxCell>
        <mxCell id="XV_mNA2x3nD7pgy6xjAF-22" value="" style="sketch=0;points=[[0,0,0],[0.25,0,0],[0.5,0,0],[0.75,0,0],[1,0,0],[0,1,0],[0.25,1,0],[0.5,1,0],[0.75,1,0],[1,1,0],[0,0.25,0],[0,0.5,0],[0,0.75,0],[1,0.25,0],[1,0.5,0],[1,0.75,0]];outlineConnect=0;fontColor=#232F3E;gradientColor=#FF4F8B;gradientDirection=north;fillColor=#BC1356;strokeColor=#ffffff;dashed=0;verticalLabelPosition=bottom;verticalAlign=top;align=center;html=1;fontSize=12;fontStyle=0;aspect=fixed;shape=mxgraph.aws4.resourceIcon;resIcon=mxgraph.aws4.eventbridge;fontFamily=Helvetica;" parent="XV_mNA2x3nD7pgy6xjAF-28" vertex="1">
          <mxGeometry x="138" y="1.21" width="27.59" height="27.59" as="geometry" />
        </mxCell>
        <mxCell id="XV_mNA2x3nD7pgy6xjAF-26" value="Default Event Bus" style="sketch=0;outlineConnect=0;fontColor=#232F3E;gradientColor=none;fillColor=#B0084D;strokeColor=none;dashed=0;verticalLabelPosition=bottom;verticalAlign=top;align=center;html=1;fontSize=12;fontStyle=0;aspect=fixed;pointerEvents=1;shape=mxgraph.aws4.eventbridge_default_event_bus_resource;fontFamily=Helvetica;" parent="XV_mNA2x3nD7pgy6xjAF-30" vertex="1">
          <mxGeometry x="26" y="60.000000000000014" width="68" height="46.21" as="geometry" />
        </mxCell>
        <mxCell id="XV_mNA2x3nD7pgy6xjAF-27" value="Catch Xplorers&lt;br&gt;Slack Event" style="sketch=0;outlineConnect=0;fontColor=#232F3E;gradientColor=none;fillColor=#B0084D;strokeColor=none;dashed=0;verticalLabelPosition=bottom;verticalAlign=top;align=center;html=1;fontSize=12;fontStyle=0;aspect=fixed;pointerEvents=1;shape=mxgraph.aws4.rule_3;fontFamily=Helvetica;" parent="XV_mNA2x3nD7pgy6xjAF-30" vertex="1">
          <mxGeometry x="146" y="60.00000000000001" width="68" height="59.28" as="geometry" />
        </mxCell>
        <mxCell id="XV_mNA2x3nD7pgy6xjAF-64" value="" style="group" parent="XV_mNA2x3nD7pgy6xjAF-30" vertex="1" connectable="0">
          <mxGeometry x="120" y="187" width="119" height="35" as="geometry" />
        </mxCell>
        <mxCell id="XV_mNA2x3nD7pgy6xjAF-65" value="invoke xplorersbot&lt;br&gt;for slack events" style="text;html=1;align=center;verticalAlign=middle;resizable=0;points=[];autosize=1;strokeColor=none;fillColor=none;fontSize=11;fontFamily=Helvetica;fontColor=default;" parent="XV_mNA2x3nD7pgy6xjAF-64" vertex="1">
          <mxGeometry x="29" y="-1.5" width="107" height="38" as="geometry" />
        </mxCell>
        <mxCell id="XV_mNA2x3nD7pgy6xjAF-66" value="5" style="ellipse;whiteSpace=wrap;html=1;aspect=fixed;strokeWidth=2;fontFamily=Tahoma;spacingBottom=4;spacingRight=2;strokeColor=#b85450;fontSize=11;fillColor=#f8cecc;" parent="XV_mNA2x3nD7pgy6xjAF-64" vertex="1">
          <mxGeometry x="10" y="5" width="25" height="25" as="geometry" />
        </mxCell>
        <mxCell id="XV_mNA2x3nD7pgy6xjAF-6" style="edgeStyle=orthogonalEdgeStyle;rounded=0;orthogonalLoop=1;jettySize=auto;html=1;entryX=0;entryY=0.5;entryDx=0;entryDy=0;strokeWidth=2;entryPerimeter=0;startArrow=classic;startFill=1;" parent="1" source="XV_mNA2x3nD7pgy6xjAF-7" target="XV_mNA2x3nD7pgy6xjAF-16" edge="1">
          <mxGeometry relative="1" as="geometry">
            <mxPoint x="190" y="290" as="targetPoint" />
          </mxGeometry>
        </mxCell>
        <mxCell id="XV_mNA2x3nD7pgy6xjAF-7" value="" style="shape=image;html=1;verticalAlign=top;verticalLabelPosition=bottom;labelBackgroundColor=#ffffff;imageAspect=0;aspect=fixed;image=https://cdn2.iconfinder.com/data/icons/social-media-2285/512/1_Slack_colored_svg-128.png" parent="1" vertex="1">
          <mxGeometry x="-110" y="256" width="68" height="68" as="geometry" />
        </mxCell>
        <mxCell id="XV_mNA2x3nD7pgy6xjAF-13" value="&lt;b&gt;&lt;i&gt;Event Subscription&lt;br&gt;&lt;/i&gt;&lt;/b&gt;- message.channels&lt;br&gt;- team_join" style="text;html=1;align=center;verticalAlign=middle;resizable=0;points=[];autosize=1;strokeColor=none;fillColor=none;fontSize=11;fontFamily=Helvetica;fontColor=default;" parent="1" vertex="1">
          <mxGeometry x="-136" y="200" width="120" height="50" as="geometry" />
        </mxCell>
        <mxCell id="XV_mNA2x3nD7pgy6xjAF-20" style="edgeStyle=orthogonalEdgeStyle;shape=connector;rounded=0;orthogonalLoop=1;jettySize=auto;html=1;entryX=0;entryY=0.5;entryDx=0;entryDy=0;entryPerimeter=0;labelBackgroundColor=default;strokeColor=default;strokeWidth=2;fontFamily=Helvetica;fontSize=11;fontColor=default;endArrow=classic;" parent="1" source="XV_mNA2x3nD7pgy6xjAF-16" target="XV_mNA2x3nD7pgy6xjAF-17" edge="1">
          <mxGeometry relative="1" as="geometry" />
        </mxCell>
        <mxCell id="XV_mNA2x3nD7pgy6xjAF-16" value="Xplorers API" style="sketch=0;points=[[0,0,0],[0.25,0,0],[0.5,0,0],[0.75,0,0],[1,0,0],[0,1,0],[0.25,1,0],[0.5,1,0],[0.75,1,0],[1,1,0],[0,0.25,0],[0,0.5,0],[0,0.75,0],[1,0.25,0],[1,0.5,0],[1,0.75,0]];outlineConnect=0;fontColor=#232F3E;gradientColor=#FF4F8B;gradientDirection=north;fillColor=#BC1356;strokeColor=#ffffff;dashed=0;verticalLabelPosition=bottom;verticalAlign=top;align=center;html=1;fontSize=12;fontStyle=0;aspect=fixed;shape=mxgraph.aws4.resourceIcon;resIcon=mxgraph.aws4.api_gateway;" parent="1" vertex="1">
          <mxGeometry x="130" y="261" width="58" height="58" as="geometry" />
        </mxCell>
        <mxCell id="XV_mNA2x3nD7pgy6xjAF-31" style="edgeStyle=orthogonalEdgeStyle;shape=connector;rounded=0;orthogonalLoop=1;jettySize=auto;html=1;entryX=0.5;entryY=0;entryDx=0;entryDy=0;labelBackgroundColor=default;strokeColor=default;strokeWidth=2;fontFamily=Helvetica;fontSize=11;fontColor=default;endArrow=classic;" parent="1" source="XV_mNA2x3nD7pgy6xjAF-17" target="XV_mNA2x3nD7pgy6xjAF-23" edge="1">
          <mxGeometry relative="1" as="geometry" />
        </mxCell>
        <mxCell id="XV_mNA2x3nD7pgy6xjAF-17" value="Event Router" style="outlineConnect=0;dashed=0;verticalLabelPosition=bottom;verticalAlign=top;align=center;html=1;shape=mxgraph.aws3.lambda_function;fillColor=#5294CF;gradientColor=none;" parent="1" vertex="1">
          <mxGeometry x="310" y="260" width="60" height="60" as="geometry" />
        </mxCell>
        <mxCell id="XV_mNA2x3nD7pgy6xjAF-35" style="edgeStyle=orthogonalEdgeStyle;shape=connector;rounded=0;orthogonalLoop=1;jettySize=auto;html=1;labelBackgroundColor=default;strokeColor=default;strokeWidth=2;fontFamily=Helvetica;fontSize=11;fontColor=default;endArrow=classic;" parent="1" source="XV_mNA2x3nD7pgy6xjAF-21" target="XV_mNA2x3nD7pgy6xjAF-34" edge="1">
          <mxGeometry relative="1" as="geometry" />
        </mxCell>
        <mxCell id="XV_mNA2x3nD7pgy6xjAF-36" style="edgeStyle=orthogonalEdgeStyle;shape=connector;rounded=0;orthogonalLoop=1;jettySize=auto;html=1;entryX=0.5;entryY=1;entryDx=0;entryDy=0;labelBackgroundColor=default;strokeColor=default;strokeWidth=2;fontFamily=Helvetica;fontSize=11;fontColor=default;endArrow=classic;curved=1;" parent="1" source="XV_mNA2x3nD7pgy6xjAF-21" target="XV_mNA2x3nD7pgy6xjAF-7" edge="1">
          <mxGeometry relative="1" as="geometry" />
        </mxCell>
        <mxCell id="XV_mNA2x3nD7pgy6xjAF-21" value="XplorersBot" style="outlineConnect=0;dashed=0;verticalLabelPosition=bottom;verticalAlign=top;align=center;html=1;shape=mxgraph.aws3.lambda_function;fillColor=#5294CF;gradientColor=none;" parent="1" vertex="1">
          <mxGeometry x="459" y="620" width="60" height="60" as="geometry" />
        </mxCell>
        <mxCell id="XV_mNA2x3nD7pgy6xjAF-33" style="edgeStyle=orthogonalEdgeStyle;shape=connector;rounded=0;orthogonalLoop=1;jettySize=auto;html=1;labelBackgroundColor=default;strokeColor=default;strokeWidth=2;fontFamily=Helvetica;fontSize=11;fontColor=default;endArrow=classic;" parent="1" source="XV_mNA2x3nD7pgy6xjAF-23" target="XV_mNA2x3nD7pgy6xjAF-21" edge="1">
          <mxGeometry relative="1" as="geometry" />
        </mxCell>
        <mxCell id="XV_mNA2x3nD7pgy6xjAF-34" value="" style="shape=image;verticalLabelPosition=bottom;labelBackgroundColor=default;verticalAlign=top;aspect=fixed;imageAspect=0;image=data:image/jpeg,/9j/4AAQSkZJRgABAQAAAQABAAD/2wCEAAoHCA8PDxEPDw8PDw8PDxAQDw8PDxEPDw8PGRQZGRgUGBgcIS4lHB4rIRgYJjgmLD0xNjo1GiVIQDszRzA0NTEBDAwMDw8QGBIRGDEhJCE0MTQ7MTE0NDQ0NDExMTExNDE0MTQ1NDE0NDQ0MTQ0NDE0NDE0NDQxMTQ0MTQ0NDQxMf/AABEIAKgBLAMBIgACEQEDEQH/xAAbAAADAQADAQAAAAAAAAAAAAABAgMABAUGB//EAD4QAAMAAQIEAgcECAMJAAAAAAABAgMEEQUSITEGURMiQWFxgZEUMqGxByNCUnLB4fAVotEWFzVEYnOCkrT/xAAaAQADAQEBAQAAAAAAAAAAAAAAAQIDBAUG/8QALxEBAQACAQMCAwcDBQAAAAAAAAECEQMSITFBUQRx8AUigZGhsdETQmEUMlJTwf/aAAwDAQACEQMRAD8A97ubcBjremYG5gADbm3F3DuItDuNuJubcCPuHcnubcApubcXc24EzYGzbi7gQsRhAyklYrGYrKiaRiNFGIyklaEaKMVlxKLQlIs0TpDJCkJSLUhKRSEKROkXpE2hhx6QlIvSJWhpQpErRyaRG0UTjUiNI5NIlaFQ4tIjaORaI5ERTcW0LjX5lMiBC/Mzqn1gxjGFd+2MYwDYmAMIAYJgMAGMBVjGMBMAIGBMwMzAWkGBmZmOIpGKx2Kyk0jAxmBlpSYrHYrGmp0idIrROkUlNolSLMlRSalROkVpE6RRI0iNovROgDjslRekRtATj0iFo5NojSIpuLaBC/MpaFhfmRVPqhgGOd27EIpgPZjGMLRsYxg0GMYwaDACAegAGYwyBmMxQRQYGZgLTQFYWKNFZgYWIyklYrGYrKSWhKGomyk0tE6KUSoqJToSilEqKJGiVFaJsCSpEbReiVgEbRG0XolaIpuPaBjnp8x7Rsa6fMzpvpYxjGDr2xjBBWwMEwHtgGMB7YwQAbGOr8Qcc0/DtO8+op7b8sROzvLf7sr837DwuHjXiPin6zRYY0enbfLdTjfNP8eRN18ZSQrlJ2TlnJdPpgp82zca8R8L/Wa3DGs06fr2px+rP8eNJz8aTR6bR+OOF5cU5K1MYapdcWXdZIr2ppb/AFCZS+e3zKckvbw9EZnG0XENPqJdafPizyntTxXN8r8nt2fxLs0LYMVjMVjSDFYWBlIpWBmbEbKibWYrC2dXx7iL0unrJKl23MQq7On/AKJN/IqRnllMZbfR2FCs834f49l1KyRk29Jj2acpTzY37t/Y1+KO3eqr+1/Q1nHlZt5XL9sfDcedwymW5/ify5NEqJrU9er6fFdytBcbj5dHwvxvD8VMrx77a89vKTEopROgjpSonRShKGEqJUWolQghROkVoSiTRpAhfmNRo/mRTfSQmCcrolAxjArbGMYFbYxjDPbHSeI/E+k4bCrUW3dreMGNJ5bXnt2U+97fM7PXaqNPhy57+5hx3krbvywnTS9/Q+beBeC/4rnzcX4hKzc2VxhxWt8bpJbvlfeJTUpduj37EZW9pPNLLK9pHC0er/2j4xi9LjcaXT4qv0Dvn3xy1vu9l1qnCfu6b9D33iPxXouFypy1zZeVcmmxJO+Xst/ZE/Hy6JnmPDSS8UcRSSSWnvZLokubAVy4dE/EGuza5YfR6bS6bJFZ2vRxbnGk9n0b69F169iMbZO3m3ynG2T/ADa63l414g6t/YOHV2XXbJPw6Vl7+6eh6DSfo64TjlTeK89pbusmfJNP38sOUkdXxbx/WfJGm4fUaeMtOf8AENYnGJJLq4TXTbp1r6LuLxDwHrYc63R8Ry5delzXeSuX0z7+pSb2Xs5a3T80hzV8Tq+vQu3pOpDj/gnJw9PX8Iy5YvCnd4XXNXo11py/2ktt3Fb7rf4HrvCXH54lpJz7Kcsv0eaVulOVJNud/wBlppr47ew83wjx9eHItJxnBenzS1LzqGpfdc1x5Pb707p79kjj/owqZ1fE4wtPTrJDxtPeeVXkUNfGfyHjZMp0+voUs3931fRGBjMRnSdBisTLqMcfeuI37c1TO/1NOSaW8ubT7OWqT+aDc3rabLreu3v6CxWFistAM8V421XNljCn0xzzV/HXZfJL/MezdJJtvZLq35I+Ya/UPPmyZX+3bpb91P7K+S2Rrxzu4fjeTWEx9/r+B4PqPQ6rHT6LJ+pr4X2/zch7XmPn9z08n5ruj2uh1PpcOPL7bS5vdfa19Uzow7bj5j7Q493Hk9+319ejktnMi90m+77/ADZwHRyNNfeff6vw6/z/ADDknbfsv7I5f6fxMx9M+34+Z+vb8VmJQzFoxfVp0TopRKgCdCUUZOgCVE6K0SpiNKg410BQcfYim+kmDsbY42kyAwQAvbACYFSgYIAXt1PirT1l4drMcJuq02XlS7tqW+VfHbY6H9FOqi+FTjl+tgzZZte1c1c8v4NV+DPanxfU6nPwnjWrXC8dXijas2nUuoeJzNUtl2marpXs+G+8ZXpsyTbqyu84bqMek8T62tTS0858VLDWX1Yt08Tnan02fLXXzW3c5WTgum13iLWLUx6ScOm02SYdNRVcmNesl3Xu7ee5zuHeIOE8dxLTajHE5n/y+d7Wq26vFkW2779tn7jr58N67g2ovV8PX+IYKxrHk02attTOKdmpil0rbbpsu3TlZOvbvNl7es3t7TW8K02ow/Zs2DHeBLacbhTMLbZcm33GvNbHzzg88T0ep12Lhz+06XQ51H2HPk3pxe73x0+zWz6fg2dz/vCxZ5iNBpdRqdZe6+zOeRYmns6uluuXr3Xzcifo/ed6riz1ShZ/tOB5Vj+4r2ybqfci7ZlZr8ztmVmnM0mu4dx7FeDNgpZcPTLhyy5z6et2m5v4rbp817DzPh6b4JxitBkavT65R6LLSSpveljbfnzOpa83ucjwH/xri/8A3M//ANDD+kRquJ8Jxw/1qyTTS6tKs0KH9Zr6Cv8AtmfrL/7pFu5v1fQmRz5OSKvbfkm6289k2WonklUnLW6aaa80zp+Su3q63gXhueI4L1GXUWsry1CUqaidtulJ9ez6JNbJicQ4dPDdZhxYsl3GeVvGRzzS3Tnf1Ul8Ht7GcbTzrtBkp6St4vvL2uX5bz5rzX9BtHo8+TM9VqrdZO6TfXfbo9uyS9iX4HlcfFyTPH7tll739+73ebnmuTLLnxy4rLrCa33n3ZrW503V36a37u3YrCxWey+cdT4k1XotLk2frZP1c/P73+VM+f7HpfF+o58sYk+mKeav43/RL6nnlDfZN/DqdPHjrH5vF+L5Orls9u38ptHstFovQaXEl9573k93M90vx2PNaDS8+aJveJdrnq+kqF1fV+5HttTnxVLXpMe7229ae79i6jtsyjK8E5vh+T39PnO/6+Pxrr3Q2O+Wk/Lt8PYR5jNm+tvAxtxsyx8x2rEoXBk5pT9vt/v6Bo5bNdn2vHyTkwxzn903+ZKJ0PQlCWSidDUydDMlEqKUSoAnQcfYFBx9iab6bsAYxwFMi7GCYFzIpgmBcyKYIAVMgPmeszrhnij02baNPrscpZH0mFcTO7fuuFv5J7n046LxV4bwcU0/osnqZI3rBmS3rHT79PbL2W69y8kTlLZ29Dvfw63xL4C0Wv5skL7LqX19Lin1LrzuOz+K2fxOp0XhTjGePsvEeItaOW55cFc+bUTttyu3KfL/ABb/AA7HD0+fxJwmVgenXEMEdMdTNahqPYpctWl7qXT2HVeI/GPGaUY82J8Mx520r9Flx5KlNKnzVvWy3TfKkyLcPNl+v0FuPs9hruOcJ4DienwTDyrvgwPmy1W3fLb7f+XXyRL9Hq1GWtdrs+B4Frs+LJiTTW6Svqt+rXrLr7RfB/hPheKJ1KzYuIZn63pqqaxxW+/qxu9mn7a67+RyfGHjbT6HFcYckZ9ZScxEUrnE/wB+2ui2/d7vp7Opc7fey7Seg3fLxHDPEmLhnE+K5ri8tZM2ojFMtJVXpm/Wp9l7+vwO/wDB3B9VqtZXGeIpzVb/AGbE05aTXKmpf3YUvaU+r339753gDwtOm061GrwzWrzV6WXlhVkwRt6q9brNPdt+3qk+x7Fhx4XUuXz0mAxGMxGdA6gYrCxGVEWsxKpJNt7JJtvySGZ1XiLU+j01pfeyNQvg/vfgn9S8ZuyM885hjcr6PFa3O8uW8j/bt119i9i+S2RKKcvdB2Bsd+teHz1tu7XNxvmnm2fdzvt05kk2t/mvqLkndHqdBoZnSxiud+aeek+6quv1Xb5HS8Q0FYa/eh9q/k/ePj5ZlvGr5vhMuLGZ+Z+y2ny88TXta6/xLo/xGdHB0GTbmj38y/J/y+pymynlZ4aysc7Q5Orn2vqvl/f4HLo6jHk5aVeX5e07Zs5+XHV29/7L5OriuF/tv6Xv++y0SoemSpkPTLTJ0PQlMNGnRKilMnTAEoOPsJTDjfQDfUTBAea55kAAmBcyAAQAuZAAIAXMmMYDBXUxw+JcPwavFWHUYpy467zS7P8AelrrL966nLYGM+p4DVfos0FW6x59Rilvfk3jIl7k2t/rudrwPwRw/Q0skRWfNPWcmelbh+cpJJP37b+89OxWKYYy7kLcKxWFis0T1FYjGYjKT1AxWxmIxjYM4mu0caieXIm0nzJp7NP+2cpsVsuXXgrJZqx0r8O6b/r/APf+hlwDTS09rrZ77VW8v49Dt2ybZp15e7L+hxf8J+QNks0zUuaXNNLZpj0xGwjW93BjheGW2pe7837AvRYvL8/9TlNitmnXl7sP9Lwf9c/KOL9ixfulWNTJ0wtt81fHw8fHvoxk37FpkqY1MSmNqWmTphpiUxgtMlTHpk6YAtMbG+nzJ0w430DQfVQA3AeW4uoQGMCpkwDABcyYAQAvbAZjMFdRGZhYrGfUDEYzFZRdRWKwsDGWyMRjsRlDZWIxmIxmViNjMVlgtMnTHpkmyoZaYrYaZOmVDFsm2FsnTLDUyVMNMnTGGpk6YaYlMoBTJ0w0ydMYLTEpjUydMegFMON9BKYcb6BYNvqm5txdzbnmPNmRtzbg3NuLS9sYARLlAAQAqVgMIrBe2YrCwMBsrFYzFYxsGIxmBjGyMRlGTY4NkYlFGTotW06J0UonRcPZKJ0xqZOmXD2SmTphpiUy4YUxGzUydMpW2piUzUydMobGmTpmbEbGNhTFpgpitjGwpk6YaZOmMgpjY30+ZOmNjfQA+pqg7mMebp5Mrbh3AYlpKO5twGEvYmMYKrYCmMJewYGYwz2DFZjDLZWBmMB7KxGYxUMlE6MYqHtKidMxjSHtKmRpmMaRSVMnTMYo4nTJ0wGHFEpitmMUCUxGzGGE6YrZjFBNsnTCYAnTDjfQxhU3/9k=;" parent="1" vertex="1">
          <mxGeometry x="660" y="614.44" width="127" height="71.12" as="geometry" />
        </mxCell>
        <mxCell id="XV_mNA2x3nD7pgy6xjAF-11" value="process event and&lt;br&gt;respond to slack" style="text;html=1;align=center;verticalAlign=middle;resizable=0;points=[];autosize=1;strokeColor=none;fillColor=none;fontSize=11;fontFamily=Helvetica;fontColor=default;" parent="1" vertex="1">
          <mxGeometry x="66" y="539" width="108" height="38" as="geometry" />
        </mxCell>
        <mxCell id="XV_mNA2x3nD7pgy6xjAF-48" value="" style="group" parent="1" vertex="1" connectable="0">
          <mxGeometry x="-10" y="250" width="110" height="30" as="geometry" />
        </mxCell>
        <mxCell id="XV_mNA2x3nD7pgy6xjAF-8" value="/POST events" style="text;html=1;align=center;verticalAlign=middle;resizable=0;points=[];autosize=1;strokeColor=none;fillColor=none;fontSize=11;fontFamily=Helvetica;fontColor=default;" parent="XV_mNA2x3nD7pgy6xjAF-48" vertex="1">
          <mxGeometry x="20" width="90" height="30" as="geometry" />
        </mxCell>
        <mxCell id="XV_mNA2x3nD7pgy6xjAF-44" value="1" style="ellipse;whiteSpace=wrap;html=1;aspect=fixed;strokeWidth=2;fontFamily=Tahoma;spacingBottom=4;spacingRight=2;strokeColor=#b85450;fontSize=11;fillColor=#f8cecc;" parent="XV_mNA2x3nD7pgy6xjAF-48" vertex="1">
          <mxGeometry y="2.5" width="25" height="25" as="geometry" />
        </mxCell>
        <mxCell id="XV_mNA2x3nD7pgy6xjAF-49" value="" style="group" parent="1" vertex="1" connectable="0">
          <mxGeometry x="-11" y="296" width="124" height="30" as="geometry" />
        </mxCell>
        <mxCell id="XV_mNA2x3nD7pgy6xjAF-50" value="200 OK immediately" style="text;html=1;align=center;verticalAlign=middle;resizable=0;points=[];autosize=1;strokeColor=none;fillColor=none;fontSize=11;fontFamily=Helvetica;fontColor=default;" parent="XV_mNA2x3nD7pgy6xjAF-49" vertex="1">
          <mxGeometry x="7" y="3" width="117" height="25" as="geometry" />
        </mxCell>
        <mxCell id="XV_mNA2x3nD7pgy6xjAF-51" value="2" style="ellipse;whiteSpace=wrap;html=1;aspect=fixed;strokeWidth=2;fontFamily=Tahoma;spacingBottom=4;spacingRight=2;strokeColor=#b85450;fontSize=11;fillColor=#f8cecc;" parent="XV_mNA2x3nD7pgy6xjAF-49" vertex="1">
          <mxGeometry x="-11" y="2.5" width="25" height="25" as="geometry" />
        </mxCell>
        <mxCell id="XV_mNA2x3nD7pgy6xjAF-56" value="" style="group" parent="1" vertex="1" connectable="0">
          <mxGeometry x="196" y="250" width="110" height="30" as="geometry" />
        </mxCell>
        <mxCell id="XV_mNA2x3nD7pgy6xjAF-57" value="async invoke" style="text;html=1;align=center;verticalAlign=middle;resizable=0;points=[];autosize=1;strokeColor=none;fillColor=none;fontSize=11;fontFamily=Helvetica;fontColor=default;" parent="XV_mNA2x3nD7pgy6xjAF-56" vertex="1">
          <mxGeometry x="24" y="3" width="82" height="25" as="geometry" />
        </mxCell>
        <mxCell id="XV_mNA2x3nD7pgy6xjAF-58" value="3" style="ellipse;whiteSpace=wrap;html=1;aspect=fixed;strokeWidth=2;fontFamily=Tahoma;spacingBottom=4;spacingRight=2;strokeColor=#b85450;fontSize=11;fillColor=#f8cecc;" parent="XV_mNA2x3nD7pgy6xjAF-56" vertex="1">
          <mxGeometry y="2.5" width="25" height="25" as="geometry" />
        </mxCell>
        <mxCell id="XV_mNA2x3nD7pgy6xjAF-59" value="" style="group" parent="1" vertex="1" connectable="0">
          <mxGeometry x="377" y="250" width="110" height="30" as="geometry" />
        </mxCell>
        <mxCell id="XV_mNA2x3nD7pgy6xjAF-60" value="push event" style="text;html=1;align=center;verticalAlign=middle;resizable=0;points=[];autosize=1;strokeColor=none;fillColor=none;fontSize=11;fontFamily=Helvetica;fontColor=default;" parent="XV_mNA2x3nD7pgy6xjAF-59" vertex="1">
          <mxGeometry x="29" y="3" width="72" height="25" as="geometry" />
        </mxCell>
        <mxCell id="XV_mNA2x3nD7pgy6xjAF-61" value="4" style="ellipse;whiteSpace=wrap;html=1;aspect=fixed;strokeWidth=2;fontFamily=Tahoma;spacingBottom=4;spacingRight=2;strokeColor=#b85450;fontSize=11;fillColor=#f8cecc;" parent="XV_mNA2x3nD7pgy6xjAF-59" vertex="1">
          <mxGeometry x="9" y="3" width="25" height="25" as="geometry" />
        </mxCell>
        <mxCell id="XV_mNA2x3nD7pgy6xjAF-68" value="" style="group" parent="1" vertex="1" connectable="0">
          <mxGeometry x="532" y="658" width="116" height="35" as="geometry" />
        </mxCell>
        <mxCell id="XV_mNA2x3nD7pgy6xjAF-69" value="Ask OpenAI&lt;br&gt;(if OpenAI event)" style="text;html=1;align=center;verticalAlign=middle;resizable=0;points=[];autosize=1;strokeColor=none;fillColor=none;fontSize=11;fontFamily=Helvetica;fontColor=default;" parent="XV_mNA2x3nD7pgy6xjAF-68" vertex="1">
          <mxGeometry x="27" y="-3" width="101" height="38" as="geometry" />
        </mxCell>
        <mxCell id="XV_mNA2x3nD7pgy6xjAF-70" value="6" style="ellipse;whiteSpace=wrap;html=1;aspect=fixed;strokeWidth=2;fontFamily=Tahoma;spacingBottom=4;spacingRight=2;strokeColor=#b85450;fontSize=11;fillColor=#f8cecc;" parent="XV_mNA2x3nD7pgy6xjAF-68" vertex="1">
          <mxGeometry x="9" y="3" width="25" height="25" as="geometry" />
        </mxCell>
        <mxCell id="XV_mNA2x3nD7pgy6xjAF-72" value="7" style="ellipse;whiteSpace=wrap;html=1;aspect=fixed;strokeWidth=2;fontFamily=Tahoma;spacingBottom=4;spacingRight=2;strokeColor=#b85450;fontSize=11;fillColor=#f8cecc;" parent="1" vertex="1">
          <mxGeometry x="104" y="519" width="25" height="25" as="geometry" />
        </mxCell>
      </root>
    </mxGraphModel>
  </diagram>
  <diagram id="Ae8hZRQp5n9gAe_0EkYf" name="CI/CD">
    <mxGraphModel dx="671" dy="444" grid="0" gridSize="10" guides="1" tooltips="1" connect="1" arrows="1" fold="1" page="1" pageScale="1" pageWidth="827" pageHeight="1169" math="0" shadow="0">
      <root>
        <mxCell id="0" />
        <mxCell id="1" parent="0" />
        <mxCell id="whLaNSwG4PTJ5D1u7uz7-1" value="" style="shape=image;verticalLabelPosition=bottom;labelBackgroundColor=default;verticalAlign=top;aspect=fixed;imageAspect=0;image=data:image/png,iVBORw0KGgoAAAANSUhEUgAAAToAAACgCAMAAACrFlD/AAAAsVBMVEX///8eiP8Agf95uP8AgP8Ag/+qzv8Xhv9ETlmXwv91tv9IUVz6/f/o6eqUmZ5JUlxwtP9OV2G7v8Itj//09PW00//g7v/t9f+ytbl6gIdjanPZ291aYmvm8f9urP/FyMrB2//X6P89SFOrr7Nipv/0+f9udHxUn//L4f/DxciYnaKFipA4lP+92f+hzP/f4OKLvP9Fmf9Xof92sP+TwP+Xx//t7e4zP0zQ0tR+hIuLkJbbUj2+AAANH0lEQVR4nO1dCXeiyhIGBEFBEcEtYiLua1yijuP//2GvqrpRNpOZe899mtDfORMEGmg/q2vrakaSBAQEBAQEBAQEBAQEBH42rEd34DvCCo6j3cpd7UalmSDwL9A7uIqm67oM/zRF3vYe3aHvAmurajJBZ381dSsk708QrDTiS9E0XYO/yJ/mBo/u1jdAQwGudGV3DMawNw6OU3ag8eiOPT2KQJSujqJCFryqwJ36/rA+fQ+sVbQNSQnruyB46vohPfouCNCqZui1HnCna0LffQJkyG1lnBjjmdX/vT/fByUNRmuTPjYbjRiFPfBUtNJDevUd0AJ6lCJ93CqKoh+j3lxDBVqzBFIAcAShm7JPKrl2btQy7IXY3QfoM5WZgh3aWWBP3TevZwNFlt1Hde3JAdxwS2C5YC1GCkleYRyeBz6V2cN699R418IRCdSBgK1dDMI0OfTyYDxrx8d175nxCsqMSRWjTrIOGoazyo6N4hlI5eiRHXxewIDUmAnl1IFLMqIAlgUSY1CAuwf274kBCk5m7siVOhA1zKPoLh2H88IrzoIFzHC+ItSBCkRLS4bWDTkUiOMedQ1B3ZdYZQ5YVxED9ktkmIlm1Ey0hJm4hw/w2/r0KXROtpRdV6YspEDn5PWB/XtiFIG6A31i1DVcjaYlQpe4BOdFqjgTsUBMdqcsELtNhmEgJrKd2VhB+M/CiZ3OZhKVkQj//wgwYrkdKKo6JZ36kbNTXYSwdzHGVCfTZiVdUeRYdq6owlmR6ryHo3KdvOmt1zGecMJHEUJ3HytUcFkVJph7F07dZwjAkdPltBkNcEJMb2ZcIRCij1PYWjFxtIiMKv1HdOgboYE5JmUfTaTP9lhMIYpOvsRMp+qcVWnWGlvj1qy0ojBW7z+6Y98AzR1xReVh4KKwIrGdCCP+CCXG1600UTk8ukvfBq3jirGnY3HiqiQ84b9Bs7HH0p3RR0O4JH8NjGg/sk7MDqPdavp6/Ez9zUrQBsvf/6POPTduyYD4YVfF4nYYyuruXrFicXVts8qjT1NEDy+p5YKdcjMgujrK0oLMRF/bTPO3dACpS8YVfY38Fk2TWWm7Jqc1ITmGMm9DDObOsUHqErnNGYUVq2PQslqzLebf9VSyADOisuaWsE1Qoja5C36JulhFXY/E6SqI1hYDXnccuwqrP/VbStQ6KPdqbH8wimzlSWS0TXG0Rm1mAwatVo5dtQfjwufVGNbYJmcTaURddERiSawW9zYaMDpjUz19VZYTbfrQRs2Xk0IWFmf+Q001TVTEIqevYAyizt8I2myjbSxJKmh5Ky5Dv26v31agNJVrYQVivFdXY6mJZvh2sAfXyDflZ41Ut0cZZi1X2g5ntI9rWvc07VuUyYsImLXTZKVExdmRKtm1EmsDig8zB1jzmKulPkWqj2WenOJ+FGEsUqK4iboNmaOlT1gScOg1GXofvE2P2Nxjm0a0rCAnYNRhbCCTiwsUKk00FuqHZE2BFQWV2hpHrBICl5IFuNJMBeU2wjYFiYpVEnb4h6MYVmW/y4rOMnfamC2f+CB5QlakGV91fIXaY8bj9RWZo9HbVOO25MfjSh1I2ohLXQ/X8ci0poKxAgMad0PwKkZcsYI7nLAgt1KHGAfrKa/WGZGcceZYfuU1xEpmRuOV2mjcJUHjsU0/4OciRp0UWVaBo/UaH7zGLOz1GuQ3ZE4qw9Fc5Z6S1AUqryGz9mQFCFimot58tua1zmykqnt+EEvOlFxlAJLUWSsQMOae9a9e2gH95kgjLKotJtrcyZn+YCSpQxdOTuRAArS0/ehFGHLEJawJBkPN1XhNU2dh4ckuWv3fwiP72FW0Wjuahxqv8lfok6JOmmFaZHWTqRnl5uIyNkPfZXVLpszy+NaANHXSFv017YOvtkMrqqeG4jHW5hXdwZwN10zqJMwLy5rqTvc7WY3njK8oKdc2LmuTu7L3LOooL8zDBxQuOSuF2aCloGF0oeWw0CeTOqm3h5AsrKl4HWdcB9ZjFGmTOd/4w5FNHTgbh6muqIq8P96fYA3bTEu5coVD3KMOYI1b46+WKFrj3pdtfio+oU7gcwjq/jEEdf8Yn1L3J1osr5qOZh0yJ2NaxdeVrLm7j8Z9bqzg/VAoFw7FIJf8zbSstPi4oPN3x2qJRWQ3WOtyrVwuFArlcq3Q/297+ZTAtOU+ebAvh+EEFaSssuL6ZqFWQJTpby2Hr+Yd48xMIlzgbxjT3JWrsVK79NT0rAacgdgVDvQX/uQsbyJRjUlicVMRmVNHayS01dhhjVjqBVkBilyNv192dqS93HFXvL7OjoMqEyNv8lzTEvf4eGyhnBVubQJUeuW8xbEtLSF2mO91o0xh7asWL2I6lIG5KFM92C/nbiEtVndFijbflVT9K879x2rncLiW422acKiWtyxAC4XqNmRvs103bBO1c8dyoZa0HI08il0DJyNG3KsN1Iw3TtCbUW+COUaHJOkFW+ioZGf2fjA+cBJ/xwYgBmbp8odRbPZ/ViuU0yn393IOjSwVQOgyvSYGaGQkzYgGa0b6q8jfQmm1EI1MkpDQXJUmMtCr6zX5Y93E+k2Uv2Ot1sBRWKshkX0mi71yDQHjtZYOHsBQlPM2KYY4qnxhMa+vk0DpH4ArPjRnrEz2nUVd6P+mfThsm7tZMUTAl3zxskPpvVbrw+ZQo6HJpW4N8T5CSF0c/RFfx850XUBKzgqIo3f+erH1O+IgdF0SrcbHfiV/bWEDYWGz0FQzXtXZwtLYL/y6Mfp1uUx5XoHRRFLbl7X4mxQhmkiNzVxGE3EUlVTN0jq5/oti2HjAGuQxhk0CMydyKnMSX3VYwsxJtE0Ph2vOhS58WdZtPL6T1xL341o0JRELzYDL3EWwKRQpLzyl/zqmV6T/qi21XJNliQ8zliU+0F7ehyuiyCYkFN1la//1jCoxlhfGoIz+gAzm2jG5YubyGTGKLpRdljz1trXCDbVt3rLr92BtZXpPFsqem/Z+GfoFjMtA3sq1Qr7WX3+OcaM8deXVdLv+xM1tNo7bwvYo3mqURr6DAwEBAQEBAQEBAQEBAQEBAQEBAQEBAQEBAYFnRmXerm+ue+2Xc7qJt6nQ9sS3EUxePrv1ZvPJ2RuGL3/W7rngXUwD0PH4/vDXPDy1qYYf64MLbdt8G8GL/cnNfdvxMk90q7EfqPqr+xddfhZMzM7b5rwYhD/7eXH9FufBgn+qm5w6u5q8/sW5f++u7dsZMgyYD9qx3UVKmp8fC3tJ225G37vGv6RuYWZcQJgb7czj3wgnxzlFditdABtilXO37Vy65zOKTZy6LpOkzRlbAnWb4fAt8+4vvuX7t5vXoZ3Hbj20F3DrbvKhePP2sM1HAJw/tYd173ZmOI/29rGY253o7uLXwDSYghvCR98ZADykjglPnah7MejbTAyU1Be/PgBd+ZKh0yog0VUjHP9Vc2AbA/yl8Cm+DXc26cQSdgdhq4th2AZ7muX4Z7iz7XvhGdMcDJ7GnizsRXQXLOjCZBLkVSpzs3qqVJCfur0EY7mpDIm6CdP9HYdR59S90yL+EzC0jbr0Fg76pdnpet55UsFbn9r2kN8azXDlEhK8MDsbbzMxhrjj+/6bV+mwLtaN3xXP61afhrqLndQ5Q+M6+CK6znHQDBuOk6bOoUYTI20jO2YFNAJzXs7GhB1kZT0JXbfgV3sm3RrUCG58BwdAxaErLxkPeCh+23UJrepiEX6VCHXnCHWTIWKZQZ1NctA2h8l7n+g7d9j5iz2PnrtD3ZvNdOpvE9Wpz57j+0h3lXr6RFiS1A0HthMOuGzqYrouIXW0czZTHl/dxMuHJpE0sWMm/A514Q+wMJEnnwnsC1F3Np1l/WlGq4S6Dvvqnc72b37kDnVRC5ugjs50uZMTwdIZgn1usx/lJWbJ71HHeebbGHXS2wR8d/95fJo6/8abf0HdHanzQD+CFTUc26Nr/kTqbtSlpA5wOlcd42mG7cZh/fo76mzmnER1XT2l685m54xYkpZbxsOKO9TNuQe9ZLouQZ2EyvC39Cz4TSMWqMvQdRszHIRx6pYmftGKw6WObtAxkhFX1WQCwr7tmxHzXm6/CiGk7mSQB+0xSc2grmJkOEEPQsWxh57kDRl1ngdjZW55zAmFITc/0ec4dW2740mViR/6dWfU75PknX1uGDyHfNqJfQFtd7rwFIzpnz32GHxa1Tyzh17MC/RmyYQvRl0VowrvYqQM+ePQ9Q3bMQ0fheZtYJq2Y5sGd+7rtmEMMHSIZ04837b9wbBD0YTvDAe+b/jJGLg7CLNRkwHKsdcxTGg34NZiCDp/4LB74kNN0/h1olbOi2N0kCyIJqgp81E6EIG82MbzjFfEvLqsskCxUg/Bv6D3Bp9hu6nzsJVtveGyepbe6KJ5XTpflsNUHBZeAiTW2Q9xXiwvwyvDJ7j1nDUM4YW94SqDnccn4DPPi8tykZ2HERAQEBAQEBAQEBAQEBD4yfgfLhENtFM5ToYAAAAASUVORK5CYII=;" vertex="1" parent="1">
          <mxGeometry x="119" y="290" width="134" height="68.28" as="geometry" />
        </mxCell>
        <mxCell id="whLaNSwG4PTJ5D1u7uz7-2" value="authenticate to AWS" style="edgeStyle=orthogonalEdgeStyle;shape=connector;curved=1;rounded=0;orthogonalLoop=1;jettySize=auto;html=1;labelBackgroundColor=default;strokeColor=default;fontFamily=Helvetica;fontSize=11;fontColor=default;endArrow=classic;entryX=0.26;entryY=0.5;entryDx=0;entryDy=0;entryPerimeter=0;" edge="1" parent="1" target="whLaNSwG4PTJ5D1u7uz7-16">
          <mxGeometry x="-0.0027" relative="1" as="geometry">
            <mxPoint x="208" y="386" as="sourcePoint" />
            <mxPoint x="347" y="387" as="targetPoint" />
            <mxPoint as="offset" />
          </mxGeometry>
        </mxCell>
        <mxCell id="whLaNSwG4PTJ5D1u7uz7-4" style="edgeStyle=orthogonalEdgeStyle;shape=connector;curved=1;rounded=0;orthogonalLoop=1;jettySize=auto;html=1;entryX=0;entryY=0.5;entryDx=0;entryDy=0;labelBackgroundColor=default;strokeColor=default;fontFamily=Helvetica;fontSize=11;fontColor=default;endArrow=classic;exitX=0.5;exitY=1;exitDx=0;exitDy=0;" edge="1" parent="1" source="whLaNSwG4PTJ5D1u7uz7-5" target="whLaNSwG4PTJ5D1u7uz7-28">
          <mxGeometry relative="1" as="geometry">
            <mxPoint x="350" y="580.0000000000001" as="targetPoint" />
          </mxGeometry>
        </mxCell>
        <mxCell id="whLaNSwG4PTJ5D1u7uz7-5" value="" style="shape=image;verticalLabelPosition=bottom;labelBackgroundColor=default;verticalAlign=top;aspect=fixed;imageAspect=0;image=data:image/png,iVBORw0KGgoAAAANSUhEUgAAAQMAAADCCAMAAAB6zFdcAAAAzFBMVEX///9fQ+lAQLJeQelTMuhbPemMe+5jRuoqKq00NK/p6fXUz/ioqNhdQOlQLehRL+hXN+g5ObD5+P5VNehYOuiIdu7t6vxNKOfw7v2nmvLCuvba1fnSzPgnJ6y9tPVsVOu1td4vL67k4Pt2YOxzc8ODcO3R0eqekPHLxPeyp/NmS+p9aeyXiPBoTupsbMG5r/SsoPLHwPZwWOtWVrkfH6qbm9O5ud9QULigkvGSks+Tg+94YuxFRbT29P5HH+fn4/uGhsrHx+VjY74VFapDYfotAAAFyklEQVR4nO2da3vaOBBGJQwEyILxhZK00EIbQsml7bbbTdJNmr38//+0kmOwsSVbTuwKaeb90g9tkvF5nh5mNCIQgsFgMBgMBoPBYDAYDAbTVE583RXoz2z8UXcJ2nPsuh/e6y5Cc47bdDj68aC7DK1hDCgN219016EzEQPqjDu/665EX54YMArtD29016IrWwaUa+FEdzV6kjBgWnBhaiHNgNLgCKIW9hlQxwWohQwDpoVpF5oWcgwo7UDTgoABpWP6WnddvzJCBqxb+ApIC2IGvFuAowUZA6aF9qnu4n5R5Az4EAFDCwUMwGihkAEQLZQwYFoYWa+FUgasW7BdCwoMrNeCCgOuhckr3ZU2FzUGfIg4tXYTocrAZi2oM6DOz5nuaptJBQa0fay72maCDJ7DYN3k6+Titwa/uSzVGXSnk6ba5/NvfxjCoMOm6iZeJwdnPa9vCgM2VQ/rf5383vNaLXMYNNA+/+n1Wy2zGNQ8VZ9/W7Za5jGocaoenM29lpkMWPsc1qAFPxKBsQyYFt69VAuxCMxl8OKpeicCkxlEWnhut8A7gpYNDPhU/fZZP/t7loDBDLgWqo9Tiz0RGM+Aa2FVTQvnN8s8AbMZ8NXcrboWmAhEBExnwLsFVS3c5UVgCQNVLSz6AhHYwkCpW8h2BNYx4N1CoRZSo4G9DCgNA6kW/LtiAtYwYFq4FmtB2BEcAgO3dgaSbkHSERwAg0caOLUz4FpY72th8EnSERwAA0K+tMP6GTAthJ+Tn+HLO4KDYEAefkzVHqsSA66F7W6uqCM4DAaEvP/LVfkPUY1BpAX+Bf69ggi0MyDko4oWqjKgDuVfMJgrI9DKgJCNW6qF6gyOIgZKNjwEBuThalTydPYzYFq4LNYCBAZMC0dFWoDBgGkhkGsBCgOmBVf2kGAYRN3CEDoDpoULoRZAMZBoARgDpoX8EAGNAZuqL7NagMeAkFlGCxAZZIcImAyInx4igDKIhoitFsAySGkBMANCPo9D8AzIw5oPEbAZ8G5hNITOgGnh+id4BqxbQAZxkAEy4JkEDTKYm8FANFXXxMDrmYGAiKbqWhh4vb9Nehvp7FppY1+JQe9f095OvFHZ2FdgsLz/R/cjVY9fupqrwKBvyOvBNrvfPFq2mlNmYJgIWFbJXaNZycZejYF5IiDdYJpcQSxazakxMFIErE8cJ3eNfPlqToWBaSKIw3vl9M1kPlU/k4E3N00EcZ7mheHoMtHCdVushRIGvU8DfY/xomxnpo6bXEGMD9sqMVjeGCiCOMncmLqC6K9FQ0QBg35voe0JXp7U7Jy6gkherfJakDLw5ndmiiDO3vnBcLR63P7F7F1WCzIG5oogTuYMJX0zOasFMYPl/bm+6utJ7hwpbCdauN0bIkQM+v2FttJrS/4szQkudlp4XKXOFvIMvJ7ZIogjOk9Ma+H4YqeFHAPjRRBHfKbama53H+LwNgyFDJY3xosgjuxcORxvtv/Ev30aIvYY9L2FtprrjvRs3Qmy3UKKgekdwX4K9gtsiEi0wLqFhMH8zA4RxCncsXTcq5QWgpiBPSKIU7Jn2tcC/2Pw30JbsQ2lbNfGuoXdRz5F47VvkQjilO8bh+6l5R/5pLJz7YyurP7IJ7W9c+huyr+VsVHcvTvBkb2fBKd8/8CxVwsV7mB0At3FNpTK91AsDDJABjzIABnwIANkwIMMkAEPMkAGPMgAGfAgA2TAgwyQAQ8yQAY8yAAZ8CADZMAzQQZkU/4+JusZCG8mQ2PwdNcIOgN+12gMnsHuCiJkBkpasJ6BghYAMGBa6BRqAQQD4p8W/TIEGAyYFiZyLUBhUKQFOAzk3QIkBoSIuwVYDMRaAMaAkDd5LYBjQMjrbLcAkAHrFva1AJFBVgswGTAtfE20AJUB08JwDJ4BIdshAjIDctKNtACaQawF4AyYFsIxeAZMC+5Qdwn6c9LVXQEGg8FgMBgMBoPBYDAYTCr/Ayt3f9/A4PxrAAAAAElFTkSuQmCC;" vertex="1" parent="1">
          <mxGeometry x="142.5" y="360" width="69" height="51.68" as="geometry" />
        </mxCell>
        <mxCell id="whLaNSwG4PTJ5D1u7uz7-11" value="" style="shape=image;html=1;verticalAlign=top;verticalLabelPosition=bottom;labelBackgroundColor=#FFCCE6;imageAspect=0;aspect=fixed;image=https://cdn0.iconfinder.com/data/icons/phosphor-thin-vol-3/256/number-circle-one-thin-128.png;fontFamily=Helvetica;fontSize=11;fontColor=default;" vertex="1" parent="1">
          <mxGeometry x="267.31" y="348.28" width="25.62" height="25.62" as="geometry" />
        </mxCell>
        <mxCell id="whLaNSwG4PTJ5D1u7uz7-15" value="" style="sketch=0;outlineConnect=0;fontColor=#232F3E;gradientColor=none;fillColor=#BF0816;strokeColor=none;dashed=0;verticalLabelPosition=bottom;verticalAlign=top;align=center;html=1;fontSize=12;fontStyle=0;aspect=fixed;pointerEvents=1;shape=mxgraph.aws4.temporary_security_credential;" vertex="1" parent="1">
          <mxGeometry x="395" y="367.6" width="31" height="31.4" as="geometry" />
        </mxCell>
        <mxCell id="whLaNSwG4PTJ5D1u7uz7-16" value="IAM OIDC&lt;br&gt;Provider" style="outlineConnect=0;dashed=0;verticalLabelPosition=bottom;verticalAlign=top;align=center;html=1;shape=mxgraph.aws3.iam;fillColor=#759C3E;gradientColor=none;" vertex="1" parent="1">
          <mxGeometry x="357" y="357.05" width="28" height="52.5" as="geometry" />
        </mxCell>
        <mxCell id="whLaNSwG4PTJ5D1u7uz7-19" value="" style="group" vertex="1" connectable="0" parent="1">
          <mxGeometry x="352" y="471" width="86.99921568627457" height="79.18666666666678" as="geometry" />
        </mxCell>
        <mxCell id="whLaNSwG4PTJ5D1u7uz7-17" value="" style="sketch=0;outlineConnect=0;fontColor=#232F3E;gradientColor=none;strokeColor=#ffffff;fillColor=#232F3E;dashed=0;verticalLabelPosition=middle;verticalAlign=bottom;align=center;html=1;whiteSpace=wrap;fontSize=10;fontStyle=1;spacing=3;shape=mxgraph.aws4.productIcon;prIcon=mxgraph.aws4.s3;" vertex="1" parent="whLaNSwG4PTJ5D1u7uz7-19">
          <mxGeometry width="50" height="46.19" as="geometry" />
        </mxCell>
        <mxCell id="whLaNSwG4PTJ5D1u7uz7-18" value="&lt;span style=&quot;color: rgb(0, 0, 0); font-family: Helvetica; font-size: 12px; font-style: normal; font-variant-ligatures: normal; font-variant-caps: normal; font-weight: 400; letter-spacing: normal; orphans: 2; text-align: center; text-indent: 0px; text-transform: none; widows: 2; word-spacing: 0px; -webkit-text-stroke-width: 0px; background-color: rgb(251, 251, 251); text-decoration-thickness: initial; text-decoration-style: initial; text-decoration-color: initial; float: none; display: inline !important;&quot;&gt;S3&lt;/span&gt;" style="text;whiteSpace=wrap;html=1;" vertex="1" parent="whLaNSwG4PTJ5D1u7uz7-19">
          <mxGeometry x="13.999215686274567" y="43.18666666666678" width="73" height="36" as="geometry" />
        </mxCell>
        <mxCell id="whLaNSwG4PTJ5D1u7uz7-20" style="edgeStyle=orthogonalEdgeStyle;rounded=0;orthogonalLoop=1;jettySize=auto;html=1;entryX=0.488;entryY=0.863;entryDx=0;entryDy=0;entryPerimeter=0;startArrow=classic;startFill=1;endArrow=none;endFill=0;curved=1;" edge="1" parent="1">
          <mxGeometry relative="1" as="geometry">
            <mxPoint x="352" y="496.027027027027" as="sourcePoint" />
            <mxPoint x="176.17200000000003" y="413.5998400000001" as="targetPoint" />
            <Array as="points">
              <mxPoint x="176" y="496" />
            </Array>
          </mxGeometry>
        </mxCell>
        <mxCell id="whLaNSwG4PTJ5D1u7uz7-29" value="" style="group" vertex="1" connectable="0" parent="1">
          <mxGeometry x="301" y="545" width="233" height="180" as="geometry" />
        </mxCell>
        <mxCell id="whLaNSwG4PTJ5D1u7uz7-28" value="" style="rounded=1;whiteSpace=wrap;html=1;fillColor=#f8cecc;strokeColor=#b85450;" vertex="1" parent="whLaNSwG4PTJ5D1u7uz7-29">
          <mxGeometry width="227" height="180" as="geometry" />
        </mxCell>
        <mxCell id="whLaNSwG4PTJ5D1u7uz7-27" value="" style="group" vertex="1" connectable="0" parent="whLaNSwG4PTJ5D1u7uz7-29">
          <mxGeometry x="23" y="18.19148936170213" width="210" height="148.40425531914894" as="geometry" />
        </mxCell>
        <mxCell id="whLaNSwG4PTJ5D1u7uz7-21" value="API" style="sketch=0;points=[[0,0,0],[0.25,0,0],[0.5,0,0],[0.75,0,0],[1,0,0],[0,1,0],[0.25,1,0],[0.5,1,0],[0.75,1,0],[1,1,0],[0,0.25,0],[0,0.5,0],[0,0.75,0],[1,0.25,0],[1,0.5,0],[1,0.75,0]];outlineConnect=0;fontColor=#232F3E;gradientColor=#FF4F8B;gradientDirection=north;fillColor=#BC1356;strokeColor=#ffffff;dashed=0;verticalLabelPosition=bottom;verticalAlign=top;align=center;html=1;fontSize=12;fontStyle=0;aspect=fixed;shape=mxgraph.aws4.resourceIcon;resIcon=mxgraph.aws4.api_gateway;" vertex="1" parent="whLaNSwG4PTJ5D1u7uz7-27">
          <mxGeometry width="45" height="45" as="geometry" />
        </mxCell>
        <mxCell id="whLaNSwG4PTJ5D1u7uz7-22" value="Lambda" style="outlineConnect=0;dashed=0;verticalLabelPosition=bottom;verticalAlign=top;align=center;html=1;shape=mxgraph.aws3.lambda_function;fillColor=#5294CF;gradientColor=none;" vertex="1" parent="whLaNSwG4PTJ5D1u7uz7-27">
          <mxGeometry x="68" width="42" height="42.12765957446809" as="geometry" />
        </mxCell>
        <mxCell id="whLaNSwG4PTJ5D1u7uz7-23" value="Logs" style="sketch=0;outlineConnect=0;fontColor=#232F3E;gradientColor=none;fillColor=#B0084D;strokeColor=none;dashed=0;verticalLabelPosition=bottom;verticalAlign=top;align=center;html=1;fontSize=12;fontStyle=0;aspect=fixed;pointerEvents=1;shape=mxgraph.aws4.logs;" vertex="1" parent="whLaNSwG4PTJ5D1u7uz7-27">
          <mxGeometry x="2" y="75.63829787234043" width="44.04255319148936" height="32.74468085106383" as="geometry" />
        </mxCell>
        <mxCell id="whLaNSwG4PTJ5D1u7uz7-24" value="Eventbridge&lt;br&gt;Rules" style="sketch=0;points=[[0,0,0],[0.25,0,0],[0.5,0,0],[0.75,0,0],[1,0,0],[0,1,0],[0.25,1,0],[0.5,1,0],[0.75,1,0],[1,1,0],[0,0.25,0],[0,0.5,0],[0,0.75,0],[1,0.25,0],[1,0.5,0],[1,0.75,0]];outlineConnect=0;fontColor=#232F3E;gradientColor=#FF4F8B;gradientDirection=north;fillColor=#BC1356;strokeColor=#ffffff;dashed=0;verticalLabelPosition=bottom;verticalAlign=top;align=center;html=1;fontSize=12;fontStyle=0;aspect=fixed;shape=mxgraph.aws4.resourceIcon;resIcon=mxgraph.aws4.eventbridge;" vertex="1" parent="whLaNSwG4PTJ5D1u7uz7-27">
          <mxGeometry x="68" y="70.468085106383" width="43.08510638297872" height="43.08510638297872" as="geometry" />
        </mxCell>
        <mxCell id="whLaNSwG4PTJ5D1u7uz7-26" value="IAM" style="sketch=0;outlineConnect=0;fontColor=#232F3E;gradientColor=none;fillColor=#BF0816;strokeColor=none;dashed=0;verticalLabelPosition=bottom;verticalAlign=top;align=center;html=1;fontSize=12;fontStyle=0;aspect=fixed;pointerEvents=1;shape=mxgraph.aws4.role;" vertex="1" parent="whLaNSwG4PTJ5D1u7uz7-27">
          <mxGeometry x="128" y="6.874468085106336" width="50.31382978723404" height="28.37872340425532" as="geometry" />
        </mxCell>
        <mxCell id="whLaNSwG4PTJ5D1u7uz7-30" value="" style="group" vertex="1" connectable="0" parent="1">
          <mxGeometry x="204" y="525" width="78" height="57" as="geometry" />
        </mxCell>
        <mxCell id="whLaNSwG4PTJ5D1u7uz7-10" value="deploy AWS&lt;br&gt;resources" style="text;html=1;align=center;verticalAlign=middle;resizable=0;points=[];autosize=1;strokeColor=none;fillColor=none;fontSize=11;fontFamily=Helvetica;fontColor=default;" vertex="1" parent="whLaNSwG4PTJ5D1u7uz7-30">
          <mxGeometry y="19" width="78" height="38" as="geometry" />
        </mxCell>
        <mxCell id="whLaNSwG4PTJ5D1u7uz7-13" value="" style="shape=image;html=1;verticalAlign=top;verticalLabelPosition=bottom;labelBackgroundColor=#ffffff;imageAspect=0;aspect=fixed;image=https://cdn0.iconfinder.com/data/icons/phosphor-thin-vol-3/256/number-circle-three-thin-128.png;fontFamily=Helvetica;fontSize=11;fontColor=default;" vertex="1" parent="whLaNSwG4PTJ5D1u7uz7-30">
          <mxGeometry x="26.189999999999998" width="25.62" height="25.62" as="geometry" />
        </mxCell>
        <mxCell id="whLaNSwG4PTJ5D1u7uz7-33" value="" style="group" vertex="1" connectable="0" parent="1">
          <mxGeometry x="211.5" y="424" width="119" height="58" as="geometry" />
        </mxCell>
        <mxCell id="whLaNSwG4PTJ5D1u7uz7-8" value="upload application to&lt;br&gt;S3 storage" style="text;html=1;align=center;verticalAlign=middle;resizable=0;points=[];autosize=1;strokeColor=none;fillColor=none;fontSize=11;fontFamily=Helvetica;fontColor=default;" vertex="1" parent="whLaNSwG4PTJ5D1u7uz7-33">
          <mxGeometry y="20" width="119" height="38" as="geometry" />
        </mxCell>
        <mxCell id="whLaNSwG4PTJ5D1u7uz7-12" value="" style="shape=image;html=1;verticalAlign=top;verticalLabelPosition=bottom;labelBackgroundColor=#ffffff;imageAspect=0;aspect=fixed;image=https://cdn0.iconfinder.com/data/icons/phosphor-thin-vol-3/256/number-circle-two-thin-128.png;fontFamily=Helvetica;fontSize=11;fontColor=default;" vertex="1" parent="whLaNSwG4PTJ5D1u7uz7-33">
          <mxGeometry x="44.379999999999995" width="25.62" height="25.62" as="geometry" />
        </mxCell>
      </root>
    </mxGraphModel>
  </diagram>
</mxfile>
